<svg xmlns="http://www.w3.org/2000/svg" xmlns:xlink="http://www.w3.org/1999/xlink" width="465" zoomAndPan="magnify" viewBox="0 0 348.75 95.249998" height="127" preserveAspectRatio="xMidYMid meet" version="1.0"><defs><g/><clipPath id="f1321dc3a9"><path d="M 1.238281 77 L 134.4375 77 L 134.4375 94.503906 L 1.238281 94.503906 Z M 1.238281 77 " clip-rule="nonzero"/></clipPath><clipPath id="5ace36a429"><path d="M 41.328125 20.410156 L 94.160156 20.410156 L 94.160156 73.988281 L 41.328125 73.988281 Z M 41.328125 20.410156 " clip-rule="nonzero"/></clipPath></defs><g clip-path="url(#f1321dc3a9)"><path fill="#ffffff" d="M 4.179688 80.242188 L 4.179688 83.023438 C 4.179688 87.566406 7.871094 91.261719 12.414062 91.261719 L 122.929688 91.261719 C 127.46875 91.261719 131.160156 87.566406 131.160156 83.023438 L 131.160156 80.242188 Z M 122.929688 94.199219 L 12.414062 94.199219 C 6.25 94.199219 1.238281 89.1875 1.238281 83.023438 L 1.238281 78.769531 C 1.238281 77.957031 1.898438 77.300781 2.707031 77.300781 L 132.632812 77.300781 C 133.441406 77.300781 134.101562 77.957031 134.101562 78.769531 L 134.101562 83.023438 C 134.101562 89.1875 129.089844 94.199219 122.929688 94.199219 " fill-opacity="1" fill-rule="nonzero"/></g><path fill="#ffffff" d="M 124.167969 80.242188 C 123.355469 80.242188 122.695312 79.582031 122.695312 78.769531 L 122.695312 6.257812 C 122.695312 4.503906 121.265625 3.070312 119.511719 3.070312 L 15.832031 3.070312 C 14.074219 3.070312 12.644531 4.503906 12.644531 6.257812 L 12.644531 78.769531 C 12.644531 79.582031 11.988281 80.242188 11.171875 80.242188 C 10.363281 80.242188 9.703125 79.582031 9.703125 78.769531 L 9.703125 6.257812 C 9.703125 2.878906 12.449219 0.132812 15.832031 0.132812 L 119.511719 0.132812 C 122.886719 0.132812 125.636719 2.878906 125.636719 6.257812 L 125.636719 78.769531 C 125.636719 79.582031 124.976562 80.242188 124.167969 80.242188 " fill-opacity="1" fill-rule="nonzero"/><path fill="#ffffff" d="M 114.363281 71.097656 C 113.554688 71.097656 112.894531 70.4375 112.894531 69.621094 L 112.894531 12.875 L 22.445312 12.875 L 22.445312 69.621094 C 22.445312 70.4375 21.785156 71.097656 20.976562 71.097656 C 20.167969 71.097656 19.507812 70.4375 19.507812 69.621094 L 19.507812 11.40625 C 19.507812 10.589844 20.167969 9.933594 20.976562 9.933594 L 114.363281 9.933594 C 115.179688 9.933594 115.832031 10.589844 115.832031 11.40625 L 115.832031 69.621094 C 115.832031 70.4375 115.179688 71.097656 114.363281 71.097656 " fill-opacity="1" fill-rule="nonzero"/><path fill="#ffffff" d="M 78.332031 86.164062 L 57.011719 86.164062 C 54.507812 86.164062 52.480469 84.132812 52.480469 81.632812 L 52.480469 78.769531 C 52.480469 77.957031 53.132812 77.300781 53.949219 77.300781 C 54.757812 77.300781 55.417969 77.957031 55.417969 78.769531 L 55.417969 81.632812 C 55.417969 82.507812 56.132812 83.226562 57.011719 83.226562 L 78.332031 83.226562 C 79.207031 83.226562 79.925781 82.507812 79.925781 81.632812 L 79.925781 78.769531 C 79.925781 77.957031 80.582031 77.300781 81.394531 77.300781 C 82.203125 77.300781 82.863281 77.957031 82.863281 78.769531 L 82.863281 81.632812 C 82.863281 84.132812 80.828125 86.164062 78.332031 86.164062 " fill-opacity="1" fill-rule="nonzero"/><g clip-path="url(#5ace36a429)"><path fill="#ffffff" d="M 88.695312 47.167969 C 88.695312 57.578125 81.128906 66.21875 71.195312 67.894531 L 71.195312 57.355469 C 71.195312 55.410156 71.960938 53.539062 73.339844 52.160156 C 74.789062 50.710938 75.6875 48.707031 75.6875 46.496094 C 75.6875 43.828125 74.382812 41.46875 72.378906 40.011719 L 72.378906 47.632812 L 67.675781 50.351562 L 62.972656 47.632812 L 62.972656 40.011719 C 60.96875 41.46875 59.664062 43.828125 59.664062 46.496094 C 59.664062 48.707031 60.5625 50.710938 62.011719 52.160156 C 63.390625 53.539062 64.15625 55.410156 64.15625 57.355469 L 64.15625 67.894531 C 54.222656 66.21875 46.65625 57.578125 46.65625 47.167969 C 46.65625 35.558594 56.066406 26.148438 67.675781 26.148438 C 79.285156 26.148438 88.695312 35.558594 88.695312 47.167969 Z M 71.347656 20.664062 C 70.144531 20.5 68.921875 20.40625 67.675781 20.40625 C 66.429688 20.40625 65.207031 20.5 64.003906 20.664062 L 62.984375 24.261719 C 61.246094 24.617188 59.585938 25.167969 58.011719 25.882812 L 55.0625 23.566406 C 52.886719 24.730469 50.894531 26.191406 49.128906 27.886719 L 50.417969 31.402344 C 49.242188 32.683594 48.214844 34.105469 47.347656 35.628906 L 43.59375 35.488281 C 42.535156 37.664062 41.769531 40.011719 41.335938 42.46875 L 44.445312 44.558594 C 44.351562 45.414062 44.296875 46.285156 44.296875 47.167969 C 44.296875 48.050781 44.351562 48.921875 44.445312 49.78125 L 41.335938 51.867188 C 41.769531 54.328125 42.535156 56.671875 43.59375 58.851562 L 47.347656 58.707031 C 48.214844 60.234375 49.242188 61.652344 50.417969 62.9375 L 49.128906 66.449219 C 50.894531 68.148438 52.886719 69.605469 55.0625 70.773438 L 58.011719 68.453125 C 59.585938 69.167969 61.246094 69.722656 62.984375 70.074219 L 64.003906 73.671875 C 65.207031 73.835938 66.429688 73.929688 67.675781 73.929688 C 68.921875 73.929688 70.144531 73.835938 71.347656 73.671875 L 72.367188 70.074219 C 74.105469 69.722656 75.765625 69.167969 77.339844 68.453125 L 80.289062 70.773438 C 82.464844 69.605469 84.457031 68.148438 86.222656 66.449219 L 84.933594 62.9375 C 86.109375 61.652344 87.136719 60.234375 88.003906 58.707031 L 91.757812 58.851562 C 92.816406 56.671875 93.582031 54.328125 94.015625 51.867188 L 90.90625 49.78125 C 91 48.921875 91.054688 48.050781 91.054688 47.167969 C 91.054688 46.285156 91 45.414062 90.90625 44.558594 L 94.015625 42.46875 C 93.582031 40.011719 92.816406 37.664062 91.757812 35.488281 L 88.003906 35.628906 C 87.136719 34.105469 86.109375 32.683594 84.933594 31.402344 L 86.222656 27.886719 C 84.457031 26.191406 82.464844 24.730469 80.289062 23.566406 L 77.339844 25.882812 C 75.765625 25.167969 74.105469 24.617188 72.367188 24.261719 L 71.347656 20.664062 " fill-opacity="1" fill-rule="nonzero"/></g><path fill="#ffffff" d="M 70.105469 29.628906 C 69.308594 29.519531 68.5 29.457031 67.675781 29.457031 C 66.851562 29.457031 66.042969 29.519531 65.246094 29.628906 L 64.570312 32.007812 C 63.421875 32.242188 62.320312 32.609375 61.28125 33.082031 L 59.328125 31.546875 C 57.886719 32.320312 56.570312 33.285156 55.402344 34.410156 L 56.253906 36.734375 C 55.476562 37.582031 54.796875 38.523438 54.222656 39.53125 L 51.738281 39.4375 C 51.039062 40.878906 50.53125 42.429688 50.242188 44.058594 L 52.304688 45.441406 C 52.238281 46.007812 52.203125 46.585938 52.203125 47.167969 C 52.203125 47.753906 52.238281 48.328125 52.304688 48.898438 L 50.242188 50.277344 C 50.53125 51.90625 51.039062 53.457031 51.738281 54.898438 L 54.222656 54.804688 C 54.796875 55.8125 55.476562 56.753906 56.253906 57.601562 L 55.402344 59.929688 C 56.570312 61.050781 57.886719 62.019531 59.328125 62.789062 L 61.28125 61.253906 C 61.75 61.46875 62.234375 61.65625 62.726562 61.824219 L 62.726562 59.03125 C 58.085938 57.09375 54.824219 52.511719 54.824219 47.167969 C 54.824219 40.070312 60.578125 34.316406 67.675781 34.316406 C 74.773438 34.316406 80.527344 40.070312 80.527344 47.167969 C 80.527344 52.511719 77.265625 57.09375 72.625 59.03125 L 72.625 61.824219 C 73.117188 61.65625 73.601562 61.46875 74.070312 61.253906 L 76.023438 62.789062 C 77.464844 62.019531 78.78125 61.050781 79.949219 59.929688 L 79.097656 57.601562 C 79.875 56.753906 80.554688 55.8125 81.128906 54.804688 L 83.613281 54.898438 C 84.3125 53.457031 84.820312 51.90625 85.109375 50.277344 L 83.046875 48.898438 C 83.113281 48.328125 83.148438 47.753906 83.148438 47.167969 C 83.148438 46.585938 83.113281 46.007812 83.046875 45.441406 L 85.109375 44.058594 C 84.820312 42.429688 84.3125 40.878906 83.613281 39.4375 L 81.128906 39.53125 C 80.554688 38.523438 79.875 37.582031 79.097656 36.734375 L 79.949219 34.410156 C 78.78125 33.285156 77.464844 32.320312 76.023438 31.546875 L 74.070312 33.082031 C 73.03125 32.609375 71.929688 32.242188 70.78125 32.007812 L 70.105469 29.628906 " fill-opacity="1" fill-rule="nonzero"/><g fill="#ffffff" fill-opacity="1"><g transform="translate(135.787841, 40.856289)"><g><path d="M 9.25 -18.671875 C 12.28125 -18.671875 14.59375 -17.882812 16.1875 -16.3125 C 17.78125 -14.75 18.578125 -12.425781 18.578125 -9.34375 C 18.578125 -6.257812 17.78125 -3.929688 16.1875 -2.359375 C 14.59375 -0.785156 12.28125 0 9.25 0 L 2.53125 0 L 2.53125 -8.046875 L 0.6875 -8.046875 L 0.6875 -10.625 L 2.53125 -10.625 L 2.53125 -18.671875 Z M 9.03125 -3.109375 C 10.957031 -3.109375 12.394531 -3.597656 13.34375 -4.578125 C 14.300781 -5.554688 14.78125 -7.144531 14.78125 -9.34375 C 14.78125 -11.53125 14.300781 -13.113281 13.34375 -14.09375 C 12.394531 -15.070312 10.957031 -15.5625 9.03125 -15.5625 L 6.21875 -15.5625 L 6.21875 -10.625 L 10.53125 -10.625 L 10.53125 -8.046875 L 6.21875 -8.046875 L 6.21875 -3.109375 Z M 9.03125 -3.109375 "/></g></g></g><g fill="#ffffff" fill-opacity="1"><g transform="translate(155.837987, 40.856289)"><g><path d="M 10.171875 0.265625 C 8.460938 0.265625 6.953125 -0.0820312 5.640625 -0.78125 C 4.335938 -1.476562 3.316406 -2.539062 2.578125 -3.96875 C 1.835938 -5.40625 1.46875 -7.195312 1.46875 -9.34375 C 1.46875 -11.476562 1.835938 -13.257812 2.578125 -14.6875 C 3.316406 -16.125 4.335938 -17.191406 5.640625 -17.890625 C 6.953125 -18.585938 8.460938 -18.9375 10.171875 -18.9375 C 11.890625 -18.9375 13.398438 -18.585938 14.703125 -17.890625 C 16.003906 -17.203125 17.019531 -16.140625 17.75 -14.703125 C 18.488281 -13.265625 18.859375 -11.476562 18.859375 -9.34375 C 18.859375 -7.195312 18.488281 -5.40625 17.75 -3.96875 C 17.019531 -2.53125 16.003906 -1.460938 14.703125 -0.765625 C 13.398438 -0.078125 11.890625 0.265625 10.171875 0.265625 Z M 10.171875 -2.9375 C 11.753906 -2.9375 12.960938 -3.441406 13.796875 -4.453125 C 14.640625 -5.472656 15.0625 -7.101562 15.0625 -9.34375 C 15.0625 -11.570312 14.640625 -13.195312 13.796875 -14.21875 C 12.960938 -15.238281 11.753906 -15.75 10.171875 -15.75 C 8.585938 -15.75 7.375 -15.238281 6.53125 -14.21875 C 5.695312 -13.195312 5.28125 -11.570312 5.28125 -9.34375 C 5.28125 -7.101562 5.695312 -5.472656 6.53125 -4.453125 C 7.375 -3.441406 8.585938 -2.9375 10.171875 -2.9375 Z M 10.171875 -2.9375 "/></g></g></g><g fill="#ffffff" fill-opacity="1"><g transform="translate(176.168913, 40.856289)"><g><path d="M 17.921875 0 L 14.03125 0 L 12.625 -4.296875 L 5.484375 -4.296875 L 4.078125 0 L 0.28125 0 L 6.734375 -18.671875 L 11.46875 -18.671875 Z M 8.875 -14.78125 L 6.46875 -7.40625 L 11.609375 -7.40625 L 9.203125 -14.78125 Z M 10.390625 -19.75 L 7.875 -19.75 L 4.59375 -23.328125 L 4.59375 -23.59375 L 8.65625 -23.59375 L 10.390625 -20.03125 Z M 10.390625 -19.75 "/></g></g></g><g fill="#ffffff" fill-opacity="1"><g transform="translate(194.35571, 40.856289)"><g><path d="M 6 0 L 2.421875 0 L 2.421875 -18.671875 L 6.65625 -18.671875 L 14.15625 -6.640625 L 14.484375 -6.6875 L 14.484375 -18.671875 L 18.03125 -18.671875 L 18.03125 0 L 14.25 0 L 6.328125 -12.84375 L 6 -12.796875 Z M 6 0 "/></g></g></g><g fill="#ffffff" fill-opacity="1"><g transform="translate(214.814262, 40.856289)"><g/></g></g><g fill="#ffffff" fill-opacity="1"><g transform="translate(220.978629, 40.856289)"><g><path d="M 6.125 -18.671875 L 6.125 -3.09375 L 14.515625 -3.09375 L 14.515625 0 L 2.421875 0 L 2.421875 -18.671875 Z M 6.125 -18.671875 "/></g></g></g><g fill="#ffffff" fill-opacity="1"><g transform="translate(236.089625, 40.856289)"><g><path d="M 17.921875 0 L 14.03125 0 L 12.625 -4.296875 L 5.484375 -4.296875 L 4.078125 0 L 0.28125 0 L 6.734375 -18.671875 L 11.46875 -18.671875 Z M 8.875 -14.78125 L 6.46875 -7.40625 L 11.609375 -7.40625 L 9.203125 -14.78125 Z M 8.875 -14.78125 "/></g></g></g><g fill="#ffffff" fill-opacity="1"><g transform="translate(254.276422, 40.856289)"><g><path d="M 9.640625 -18.671875 C 10.972656 -18.671875 12.113281 -18.425781 13.0625 -17.9375 C 14.019531 -17.445312 14.738281 -16.757812 15.21875 -15.875 C 15.707031 -15 15.953125 -13.976562 15.953125 -12.8125 C 15.953125 -11.644531 15.707031 -10.617188 15.21875 -9.734375 C 14.738281 -8.859375 14.019531 -8.175781 13.0625 -7.6875 C 12.113281 -7.195312 10.972656 -6.953125 9.640625 -6.953125 L 6.125 -6.953125 L 6.125 0 L 2.421875 0 L 2.421875 -18.671875 Z M 9.15625 -9.890625 C 11.207031 -9.890625 12.234375 -10.863281 12.234375 -12.8125 C 12.234375 -14.769531 11.207031 -15.75 9.15625 -15.75 L 6.125 -15.75 L 6.125 -9.890625 Z M 9.15625 -9.890625 "/></g></g></g><g fill="#ffffff" fill-opacity="1"><g transform="translate(271.327342, 40.856289)"><g><path d="M 14.96875 -18.671875 L 14.96875 -15.5625 L 9.578125 -15.5625 L 9.578125 0 L 5.90625 0 L 5.90625 -15.5625 L 0.515625 -15.5625 L 0.515625 -18.671875 Z M 14.96875 -18.671875 "/></g></g></g><g fill="#ffffff" fill-opacity="1"><g transform="translate(286.795692, 40.856289)"><g><path d="M 10.171875 0.265625 C 8.460938 0.265625 6.953125 -0.0820312 5.640625 -0.78125 C 4.335938 -1.476562 3.316406 -2.539062 2.578125 -3.96875 C 1.835938 -5.40625 1.46875 -7.195312 1.46875 -9.34375 C 1.46875 -11.476562 1.835938 -13.257812 2.578125 -14.6875 C 3.316406 -16.125 4.335938 -17.191406 5.640625 -17.890625 C 6.953125 -18.585938 8.460938 -18.9375 10.171875 -18.9375 C 11.890625 -18.9375 13.398438 -18.585938 14.703125 -17.890625 C 16.003906 -17.203125 17.019531 -16.140625 17.75 -14.703125 C 18.488281 -13.265625 18.859375 -11.476562 18.859375 -9.34375 C 18.859375 -7.195312 18.488281 -5.40625 17.75 -3.96875 C 17.019531 -2.53125 16.003906 -1.460938 14.703125 -0.765625 C 13.398438 -0.078125 11.890625 0.265625 10.171875 0.265625 Z M 10.171875 -2.9375 C 11.753906 -2.9375 12.960938 -3.441406 13.796875 -4.453125 C 14.640625 -5.472656 15.0625 -7.101562 15.0625 -9.34375 C 15.0625 -11.570312 14.640625 -13.195312 13.796875 -14.21875 C 12.960938 -15.238281 11.753906 -15.75 10.171875 -15.75 C 8.585938 -15.75 7.375 -15.238281 6.53125 -14.21875 C 5.695312 -13.195312 5.28125 -11.570312 5.28125 -9.34375 C 5.28125 -7.101562 5.695312 -5.472656 6.53125 -4.453125 C 7.375 -3.441406 8.585938 -2.9375 10.171875 -2.9375 Z M 10.171875 -2.9375 "/></g></g></g><g fill="#ffffff" fill-opacity="1"><g transform="translate(307.126617, 40.856289)"><g><path d="M 9.640625 -18.671875 C 10.972656 -18.671875 12.113281 -18.425781 13.0625 -17.9375 C 14.019531 -17.445312 14.738281 -16.757812 15.21875 -15.875 C 15.707031 -15 15.953125 -13.976562 15.953125 -12.8125 C 15.953125 -11.644531 15.707031 -10.617188 15.21875 -9.734375 C 14.738281 -8.859375 14.019531 -8.175781 13.0625 -7.6875 C 12.113281 -7.195312 10.972656 -6.953125 9.640625 -6.953125 L 6.125 -6.953125 L 6.125 0 L 2.421875 0 L 2.421875 -18.671875 Z M 9.15625 -9.890625 C 11.207031 -9.890625 12.234375 -10.863281 12.234375 -12.8125 C 12.234375 -14.769531 11.207031 -15.75 9.15625 -15.75 L 6.125 -15.75 L 6.125 -9.890625 Z M 9.15625 -9.890625 "/></g></g></g><g fill="#ffffff" fill-opacity="1"><g transform="translate(149.023224, 74.039969)"><g><path d="M 3.6875 0.09375 C 3.101562 0.09375 2.582031 -0.0351562 2.125 -0.296875 C 1.664062 -0.566406 1.304688 -0.957031 1.046875 -1.46875 C 0.796875 -1.988281 0.671875 -2.609375 0.671875 -3.328125 C 0.671875 -4.054688 0.796875 -4.675781 1.046875 -5.1875 C 1.304688 -5.707031 1.664062 -6.097656 2.125 -6.359375 C 2.582031 -6.628906 3.101562 -6.765625 3.6875 -6.765625 C 4.3125 -6.765625 4.828125 -6.644531 5.234375 -6.40625 C 5.648438 -6.175781 5.953125 -5.820312 6.140625 -5.34375 L 5.640625 -5.015625 L 5.515625 -5.015625 C 5.335938 -5.390625 5.101562 -5.65625 4.8125 -5.8125 C 4.519531 -5.976562 4.144531 -6.0625 3.6875 -6.0625 C 3.269531 -6.0625 2.894531 -5.96875 2.5625 -5.78125 C 2.238281 -5.59375 1.976562 -5.296875 1.78125 -4.890625 C 1.59375 -4.484375 1.5 -3.960938 1.5 -3.328125 C 1.5 -2.703125 1.59375 -2.1875 1.78125 -1.78125 C 1.976562 -1.375 2.238281 -1.078125 2.5625 -0.890625 C 2.894531 -0.703125 3.269531 -0.609375 3.6875 -0.609375 C 4.164062 -0.609375 4.554688 -0.71875 4.859375 -0.9375 C 5.171875 -1.15625 5.40625 -1.507812 5.5625 -2 L 5.671875 -2 L 6.203125 -1.734375 C 6.035156 -1.140625 5.738281 -0.6875 5.3125 -0.375 C 4.882812 -0.0625 4.34375 0.09375 3.6875 0.09375 Z M 3.6875 0.09375 "/></g></g></g><g fill="#ffffff" fill-opacity="1"><g transform="translate(159.625183, 74.039969)"><g><path d="M 5.265625 -3.96875 L 5.265625 -6.671875 L 6.046875 -6.671875 L 6.046875 0 L 5.265625 0 L 5.265625 -3.296875 L 1.796875 -3.296875 L 1.796875 0 L 1.015625 0 L 1.015625 -6.671875 L 1.796875 -6.671875 L 1.796875 -3.96875 Z M 5.265625 -3.96875 "/></g></g></g><g fill="#ffffff" fill-opacity="1"><g transform="translate(170.73774, 74.039969)"><g><path d="M 6 0 L 5.171875 0 L 4.546875 -1.828125 L 1.703125 -1.828125 L 1.078125 0 L 0.265625 0 L 2.59375 -6.671875 L 3.671875 -6.671875 Z M 3.078125 -5.859375 L 1.921875 -2.484375 L 4.328125 -2.484375 L 3.1875 -5.859375 Z M 2.296875 -7.15625 L 1.75 -7.15625 L 1.75 -7.25 L 2.734375 -8.421875 L 3.53125 -8.421875 L 4.515625 -7.25 L 4.515625 -7.15625 L 3.96875 -7.15625 L 3.140625 -7.78125 Z M 2.296875 -7.15625 "/></g></g></g><g fill="#ffffff" fill-opacity="1"><g transform="translate(181.066165, 74.039969)"><g><path d="M 5.203125 -6.671875 L 5.203125 -6 L 3.109375 -6 L 3.109375 0 L 2.34375 0 L 2.34375 -6 L 0.25 -6 L 0.25 -6.671875 Z M 5.203125 -6.671875 "/></g></g></g><g fill="#ffffff" fill-opacity="1"><g transform="translate(190.573987, 74.039969)"><g/></g></g><g fill="#ffffff" fill-opacity="1"><g transform="translate(196.927046, 74.039969)"><g><path d="M 1.796875 -6.671875 L 1.796875 -0.640625 L 5 -0.640625 L 5 0 L 1.015625 0 L 1.015625 -6.671875 Z M 1.796875 -6.671875 "/></g></g></g><g fill="#ffffff" fill-opacity="1"><g transform="translate(206.275312, 74.039969)"><g><path d="M 5.984375 -6.671875 L 5.984375 -5.765625 C 6.285156 -5.804688 6.476562 -5.945312 6.5625 -6.1875 C 6.65625 -6.425781 6.703125 -6.726562 6.703125 -7.09375 L 7.578125 -7.09375 L 7.640625 -7 C 7.585938 -6.707031 7.503906 -6.429688 7.390625 -6.171875 C 7.273438 -5.921875 7.101562 -5.707031 6.875 -5.53125 C 6.65625 -5.363281 6.359375 -5.25 5.984375 -5.1875 L 5.984375 -2.359375 C 5.984375 -1.890625 5.894531 -1.46875 5.71875 -1.09375 C 5.539062 -0.726562 5.265625 -0.4375 4.890625 -0.21875 C 4.515625 -0.0078125 4.035156 0.09375 3.453125 0.09375 C 2.597656 0.09375 1.945312 -0.128906 1.5 -0.578125 C 1.0625 -1.035156 0.84375 -1.632812 0.84375 -2.375 L 0.84375 -6.671875 L 1.6875 -6.671875 L 1.6875 -2.34375 C 1.6875 -1.800781 1.832031 -1.378906 2.125 -1.078125 C 2.414062 -0.785156 2.863281 -0.640625 3.46875 -0.640625 C 3.875 -0.640625 4.195312 -0.710938 4.4375 -0.859375 C 4.6875 -1.003906 4.867188 -1.203125 4.984375 -1.453125 C 5.097656 -1.710938 5.15625 -2.007812 5.15625 -2.34375 L 5.15625 -6.671875 Z M 5.984375 -6.671875 "/></g></g></g><g fill="#ffffff" fill-opacity="1"><g transform="translate(217.622321, 74.039969)"><g><path d="M 6.71875 -3.34375 C 6.71875 -2.65625 6.601562 -2.050781 6.375 -1.53125 C 6.144531 -1.019531 5.800781 -0.617188 5.34375 -0.328125 C 4.882812 -0.046875 4.320312 0.09375 3.65625 0.09375 C 2.957031 0.09375 2.378906 -0.046875 1.921875 -0.328125 C 1.472656 -0.617188 1.132812 -1.019531 0.90625 -1.53125 C 0.675781 -2.050781 0.5625 -2.660156 0.5625 -3.359375 C 0.5625 -4.035156 0.675781 -4.628906 0.90625 -5.140625 C 1.132812 -5.660156 1.472656 -6.0625 1.921875 -6.34375 C 2.378906 -6.632812 2.957031 -6.78125 3.65625 -6.78125 C 4.164062 -6.78125 4.613281 -6.691406 5 -6.515625 C 5.394531 -6.347656 5.71875 -6.109375 5.96875 -5.796875 C 6.226562 -5.867188 6.390625 -6.019531 6.453125 -6.25 C 6.523438 -6.488281 6.5625 -6.769531 6.5625 -7.09375 L 7.453125 -7.09375 L 7.515625 -7 C 7.453125 -6.632812 7.332031 -6.296875 7.15625 -5.984375 C 6.976562 -5.671875 6.691406 -5.441406 6.296875 -5.296875 C 6.578125 -4.765625 6.71875 -4.113281 6.71875 -3.34375 Z M 1.453125 -3.34375 C 1.453125 -2.5 1.628906 -1.835938 1.984375 -1.359375 C 2.335938 -0.878906 2.894531 -0.640625 3.65625 -0.640625 C 4.414062 -0.640625 4.96875 -0.878906 5.3125 -1.359375 C 5.65625 -1.835938 5.828125 -2.5 5.828125 -3.34375 C 5.828125 -4.175781 5.65625 -4.832031 5.3125 -5.3125 C 4.96875 -5.789062 4.414062 -6.03125 3.65625 -6.03125 C 2.894531 -6.03125 2.335938 -5.789062 1.984375 -5.3125 C 1.628906 -4.832031 1.453125 -4.175781 1.453125 -3.34375 Z M 3.625 1.640625 C 3.5 1.640625 3.382812 1.597656 3.28125 1.515625 C 3.1875 1.429688 3.140625 1.300781 3.140625 1.125 C 3.140625 0.9375 3.1875 0.800781 3.28125 0.71875 C 3.382812 0.632812 3.5 0.59375 3.625 0.59375 C 3.757812 0.59375 3.875 0.632812 3.96875 0.71875 C 4.0625 0.800781 4.109375 0.9375 4.109375 1.125 C 4.109375 1.300781 4.0625 1.429688 3.96875 1.515625 C 3.875 1.597656 3.757812 1.640625 3.625 1.640625 Z M 3.625 1.640625 "/></g></g></g><g fill="#ffffff" fill-opacity="1"><g transform="translate(229.006674, 74.039969)"><g><path d="M 1.78125 0 L 1.015625 0 L 1.015625 -6.671875 L 1.96875 -6.671875 L 5.21875 -1.578125 L 5.34375 -1.59375 L 5.34375 -6.671875 L 6.09375 -6.671875 L 6.09375 0 L 5.28125 0 L 1.890625 -5.453125 L 1.78125 -5.4375 Z M 1.78125 0 "/></g></g></g><g fill="#ffffff" fill-opacity="1"><g transform="translate(240.178503, 74.039969)"><g><path d="M 3.515625 0.09375 C 2.953125 0.09375 2.457031 -0.03125 2.03125 -0.28125 C 1.601562 -0.539062 1.269531 -0.925781 1.03125 -1.4375 C 0.789062 -1.957031 0.671875 -2.585938 0.671875 -3.328125 C 0.671875 -4.078125 0.796875 -4.707031 1.046875 -5.21875 C 1.304688 -5.738281 1.664062 -6.125 2.125 -6.375 C 2.582031 -6.632812 3.109375 -6.765625 3.703125 -6.765625 C 4.335938 -6.765625 4.859375 -6.648438 5.265625 -6.421875 C 5.679688 -6.191406 5.972656 -5.847656 6.140625 -5.390625 L 5.640625 -5.09375 L 5.515625 -5.09375 C 5.347656 -5.4375 5.113281 -5.679688 4.8125 -5.828125 C 4.519531 -5.984375 4.148438 -6.0625 3.703125 -6.0625 C 2.234375 -6.0625 1.5 -5.148438 1.5 -3.328125 C 1.5 -2.390625 1.679688 -1.703125 2.046875 -1.265625 C 2.421875 -0.828125 2.941406 -0.609375 3.609375 -0.609375 C 4.210938 -0.609375 4.664062 -0.742188 4.96875 -1.015625 C 5.269531 -1.296875 5.421875 -1.738281 5.421875 -2.34375 L 5.421875 -2.921875 L 3.53125 -2.921875 L 3.53125 -3.546875 L 6.1875 -3.546875 L 6.1875 0 L 5.46875 0 L 5.46875 -0.890625 L 5.359375 -0.921875 C 5.179688 -0.578125 4.9375 -0.320312 4.625 -0.15625 C 4.3125 0.0078125 3.941406 0.09375 3.515625 0.09375 Z M 3.515625 0.09375 "/></g></g></g><g fill="#ffffff" fill-opacity="1"><g transform="translate(251.172528, 74.039969)"><g/></g></g><g fill="#ffffff" fill-opacity="1"><g transform="translate(257.525587, 74.039969)"><g><path d="M 3.078125 -2.90625 L 0.46875 -2.90625 L 0.46875 -3.578125 L 3.078125 -3.578125 Z M 3.078125 -2.90625 "/></g></g></g><g fill="#ffffff" fill-opacity="1"><g transform="translate(265.127787, 74.039969)"><g/></g></g><g fill="#ffffff" fill-opacity="1"><g transform="translate(271.480846, 74.039969)"><g><path d="M 3.4375 0.09375 C 2.625 0.09375 2.003906 -0.113281 1.578125 -0.53125 C 1.160156 -0.945312 0.953125 -1.5625 0.953125 -2.375 L 0.953125 -6.671875 L 1.734375 -6.671875 L 1.734375 -2.375 C 1.734375 -1.789062 1.875 -1.351562 2.15625 -1.0625 C 2.4375 -0.769531 2.863281 -0.625 3.4375 -0.625 C 4.570312 -0.625 5.140625 -1.207031 5.140625 -2.375 L 5.140625 -6.671875 L 5.921875 -6.671875 L 5.921875 -2.375 C 5.921875 -1.5625 5.710938 -0.945312 5.296875 -0.53125 C 4.878906 -0.113281 4.257812 0.09375 3.4375 0.09375 Z M 3.4375 0.09375 "/></g></g></g><g fill="#ffffff" fill-opacity="1"><g transform="translate(282.415611, 74.039969)"><g><path d="M 3.25 0 L 2.484375 0 L 2.484375 -2.625 L 0.171875 -6.671875 L 1.03125 -6.671875 L 2.828125 -3.546875 L 2.9375 -3.546875 L 4.734375 -6.671875 L 5.5625 -6.671875 L 3.25 -2.625 Z M 3.25 0 "/></g></g></g><g fill="#ffffff" fill-opacity="1"><g transform="translate(292.21065, 74.039969)"><g/></g></g><g fill="#ffffff" fill-opacity="1"><g transform="translate(298.563709, 74.039969)"><g><path d="M 5.203125 -6.671875 L 5.203125 -6 L 3.109375 -6 L 3.109375 0 L 2.34375 0 L 2.34375 -6 L 0.25 -6 L 0.25 -6.671875 Z M 5.203125 -6.671875 "/></g></g></g><g fill="#ffffff" fill-opacity="1"><g transform="translate(308.071531, 74.039969)"><g><path d="M 1.796875 0 L 1.015625 0 L 1.015625 -6.671875 L 1.796875 -6.671875 Z M 1.671875 -7.15625 L 1.078125 -7.15625 L 1.078125 -7.25 L 1.84375 -8.421875 L 2.796875 -8.421875 L 2.796875 -8.328125 Z M 1.671875 -7.15625 "/></g></g></g><g fill="#ffffff" fill-opacity="1"><g transform="translate(314.939753, 74.039969)"><g><path d="M 1.78125 0 L 1.015625 0 L 1.015625 -6.671875 L 1.96875 -6.671875 L 5.21875 -1.578125 L 5.34375 -1.59375 L 5.34375 -6.671875 L 6.09375 -6.671875 L 6.09375 0 L 5.28125 0 L 1.890625 -5.453125 L 1.78125 -5.4375 Z M 1.78125 0 "/></g></g></g></svg>