<svg xmlns="http://www.w3.org/2000/svg" xmlns:xlink="http://www.w3.org/1999/xlink" width="179" zoomAndPan="magnify" viewBox="0 0 134.25 95.249998" height="127" preserveAspectRatio="xMidYMid meet" version="1.0"><defs><clipPath id="84dcdc8a0f"><path d="M 0.152344 77 L 133.351562 77 L 133.351562 94.503906 L 0.152344 94.503906 Z M 0.152344 77 " clip-rule="nonzero"/></clipPath><clipPath id="8f460516ba"><path d="M 40.242188 20.410156 L 93 20.410156 L 93 73.988281 L 40.242188 73.988281 Z M 40.242188 20.410156 " clip-rule="nonzero"/></clipPath></defs><g clip-path="url(#84dcdc8a0f)"><path fill="#ffffff" d="M 3.09375 80.242188 L 3.09375 83.023438 C 3.09375 87.566406 6.785156 91.261719 11.328125 91.261719 L 121.84375 91.261719 C 126.382812 91.261719 130.074219 87.566406 130.074219 83.023438 L 130.074219 80.242188 Z M 121.84375 94.199219 L 11.328125 94.199219 C 5.164062 94.199219 0.152344 89.1875 0.152344 83.023438 L 0.152344 78.769531 C 0.152344 77.957031 0.8125 77.300781 1.621094 77.300781 L 131.546875 77.300781 C 132.355469 77.300781 133.015625 77.957031 133.015625 78.769531 L 133.015625 83.023438 C 133.015625 89.1875 128.003906 94.199219 121.84375 94.199219 " fill-opacity="1" fill-rule="nonzero"/></g><path fill="#ffffff" d="M 123.082031 80.242188 C 122.269531 80.242188 121.609375 79.582031 121.609375 78.769531 L 121.609375 6.257812 C 121.609375 4.503906 120.179688 3.070312 118.425781 3.070312 L 14.746094 3.070312 C 12.988281 3.070312 11.558594 4.503906 11.558594 6.257812 L 11.558594 78.769531 C 11.558594 79.582031 10.902344 80.242188 10.085938 80.242188 C 9.277344 80.242188 8.617188 79.582031 8.617188 78.769531 L 8.617188 6.257812 C 8.617188 2.878906 11.363281 0.132812 14.746094 0.132812 L 118.425781 0.132812 C 121.800781 0.132812 124.550781 2.878906 124.550781 6.257812 L 124.550781 78.769531 C 124.550781 79.582031 123.890625 80.242188 123.082031 80.242188 " fill-opacity="1" fill-rule="nonzero"/><path fill="#ffffff" d="M 113.277344 71.097656 C 112.46875 71.097656 111.808594 70.4375 111.808594 69.621094 L 111.808594 12.875 L 21.359375 12.875 L 21.359375 69.621094 C 21.359375 70.4375 20.699219 71.097656 19.890625 71.097656 C 19.082031 71.097656 18.421875 70.4375 18.421875 69.621094 L 18.421875 11.40625 C 18.421875 10.59375 19.082031 9.933594 19.890625 9.933594 L 113.277344 9.933594 C 114.09375 9.933594 114.746094 10.59375 114.746094 11.40625 L 114.746094 69.621094 C 114.746094 70.4375 114.09375 71.097656 113.277344 71.097656 " fill-opacity="1" fill-rule="nonzero"/><path fill="#ffffff" d="M 77.246094 86.164062 L 55.925781 86.164062 C 53.421875 86.164062 51.394531 84.132812 51.394531 81.632812 L 51.394531 78.769531 C 51.394531 77.957031 52.046875 77.300781 52.863281 77.300781 C 53.671875 77.300781 54.332031 77.957031 54.332031 78.769531 L 54.332031 81.632812 C 54.332031 82.507812 55.046875 83.226562 55.925781 83.226562 L 77.246094 83.226562 C 78.121094 83.226562 78.839844 82.507812 78.839844 81.632812 L 78.839844 78.769531 C 78.839844 77.957031 79.496094 77.300781 80.308594 77.300781 C 81.117188 77.300781 81.777344 77.957031 81.777344 78.769531 L 81.777344 81.632812 C 81.777344 84.132812 79.742188 86.164062 77.246094 86.164062 " fill-opacity="1" fill-rule="nonzero"/><g clip-path="url(#8f460516ba)"><path fill="#ffffff" d="M 87.609375 47.167969 C 87.609375 57.578125 80.042969 66.21875 70.109375 67.894531 L 70.109375 57.355469 C 70.109375 55.410156 70.875 53.539062 72.253906 52.160156 C 73.703125 50.710938 74.601562 48.707031 74.601562 46.496094 C 74.601562 43.828125 73.296875 41.46875 71.292969 40.011719 L 71.292969 47.632812 L 66.589844 50.351562 L 61.886719 47.632812 L 61.886719 40.011719 C 59.882812 41.46875 58.578125 43.828125 58.578125 46.496094 C 58.578125 48.707031 59.476562 50.710938 60.925781 52.160156 C 62.304688 53.539062 63.070312 55.410156 63.070312 57.355469 L 63.070312 67.894531 C 53.136719 66.21875 45.570312 57.578125 45.570312 47.167969 C 45.570312 35.558594 54.980469 26.148438 66.589844 26.148438 C 78.199219 26.148438 87.609375 35.558594 87.609375 47.167969 Z M 70.261719 20.664062 C 69.058594 20.5 67.835938 20.40625 66.589844 20.40625 C 65.34375 20.40625 64.121094 20.5 62.917969 20.664062 L 61.898438 24.261719 C 60.160156 24.617188 58.5 25.167969 56.925781 25.882812 L 53.976562 23.566406 C 51.800781 24.730469 49.808594 26.191406 48.042969 27.886719 L 49.332031 31.402344 C 48.15625 32.683594 47.128906 34.105469 46.261719 35.628906 L 42.507812 35.488281 C 41.449219 37.664062 40.683594 40.011719 40.25 42.46875 L 43.359375 44.558594 C 43.265625 45.414062 43.210938 46.285156 43.210938 47.167969 C 43.210938 48.050781 43.265625 48.921875 43.359375 49.78125 L 40.25 51.867188 C 40.683594 54.328125 41.449219 56.671875 42.507812 58.851562 L 46.261719 58.707031 C 47.128906 60.234375 48.15625 61.652344 49.332031 62.9375 L 48.042969 66.449219 C 49.808594 68.148438 51.800781 69.605469 53.976562 70.773438 L 56.925781 68.453125 C 58.5 69.167969 60.160156 69.722656 61.898438 70.074219 L 62.917969 73.671875 C 64.121094 73.835938 65.34375 73.929688 66.589844 73.929688 C 67.835938 73.929688 69.058594 73.835938 70.261719 73.671875 L 71.28125 70.074219 C 73.019531 69.722656 74.679688 69.167969 76.253906 68.453125 L 79.203125 70.773438 C 81.378906 69.605469 83.371094 68.148438 85.136719 66.449219 L 83.847656 62.9375 C 85.023438 61.652344 86.050781 60.234375 86.917969 58.707031 L 90.671875 58.851562 C 91.730469 56.671875 92.496094 54.328125 92.929688 51.867188 L 89.820312 49.78125 C 89.914062 48.921875 89.96875 48.050781 89.96875 47.167969 C 89.96875 46.285156 89.914062 45.414062 89.820312 44.558594 L 92.929688 42.46875 C 92.496094 40.011719 91.730469 37.664062 90.671875 35.488281 L 86.917969 35.628906 C 86.050781 34.105469 85.023438 32.683594 83.847656 31.402344 L 85.136719 27.886719 C 83.371094 26.191406 81.378906 24.730469 79.203125 23.566406 L 76.253906 25.882812 C 74.679688 25.167969 73.019531 24.617188 71.28125 24.261719 L 70.261719 20.664062 " fill-opacity="1" fill-rule="nonzero"/></g><path fill="#ffffff" d="M 69.019531 29.628906 C 68.222656 29.519531 67.414062 29.457031 66.589844 29.457031 C 65.765625 29.457031 64.957031 29.519531 64.160156 29.628906 L 63.484375 32.007812 C 62.335938 32.242188 61.234375 32.609375 60.195312 33.082031 L 58.242188 31.546875 C 56.800781 32.320312 55.484375 33.285156 54.316406 34.410156 L 55.167969 36.734375 C 54.390625 37.582031 53.710938 38.523438 53.136719 39.53125 L 50.652344 39.4375 C 49.953125 40.878906 49.445312 42.429688 49.15625 44.058594 L 51.21875 45.441406 C 51.152344 46.007812 51.117188 46.585938 51.117188 47.167969 C 51.117188 47.753906 51.152344 48.328125 51.21875 48.898438 L 49.15625 50.277344 C 49.445312 51.90625 49.953125 53.457031 50.652344 54.898438 L 53.136719 54.804688 C 53.710938 55.8125 54.390625 56.753906 55.167969 57.601562 L 54.316406 59.929688 C 55.484375 61.050781 56.800781 62.019531 58.242188 62.789062 L 60.195312 61.253906 C 60.664062 61.46875 61.148438 61.65625 61.640625 61.824219 L 61.640625 59.03125 C 57 57.09375 53.738281 52.511719 53.738281 47.167969 C 53.738281 40.070312 59.492188 34.316406 66.589844 34.316406 C 73.6875 34.316406 79.441406 40.070312 79.441406 47.167969 C 79.441406 52.511719 76.179688 57.09375 71.539062 59.03125 L 71.539062 61.824219 C 72.03125 61.65625 72.515625 61.46875 72.984375 61.253906 L 74.9375 62.789062 C 76.378906 62.019531 77.695312 61.050781 78.863281 59.929688 L 78.011719 57.601562 C 78.789062 56.753906 79.46875 55.8125 80.042969 54.804688 L 82.527344 54.898438 C 83.226562 53.457031 83.734375 51.90625 84.023438 50.277344 L 81.960938 48.898438 C 82.027344 48.328125 82.0625 47.753906 82.0625 47.167969 C 82.0625 46.585938 82.027344 46.007812 81.960938 45.441406 L 84.023438 44.058594 C 83.734375 42.429688 83.226562 40.878906 82.527344 39.4375 L 80.042969 39.53125 C 79.46875 38.523438 78.789062 37.582031 78.011719 36.734375 L 78.863281 34.410156 C 77.695312 33.285156 76.378906 32.320312 74.9375 31.546875 L 72.984375 33.082031 C 71.945312 32.609375 70.84375 32.242188 69.695312 32.007812 L 69.019531 29.628906 " fill-opacity="1" fill-rule="nonzero"/></svg>